<?xml version="1.0" standalone="no"?><!DOCTYPE svg PUBLIC "-//W3C//DTD SVG 1.1//EN" "http://www.w3.org/Graphics/SVG/1.1/DTD/svg11.dtd"><svg t="1623847192063" class="icon" viewBox="0 0 1024 1024" version="1.1" xmlns="http://www.w3.org/2000/svg" p-id="14076" xmlns:xlink="http://www.w3.org/1999/xlink" width="16" height="16"><defs><style type="text/css"></style></defs><path d="M512.461804 682.666667c-149.443765 0-280.816941-94.830431-326.876863-235.961726l57.283765-18.693019C280.83702 544.306196 389.180235 622.431373 512.461804 622.431373c123.080784 0 231.383843-77.964549 269.452549-194.017883l57.283765 18.753255C792.977569 588.03702 661.664627 682.666667 512.461804 682.666667zM238.873098 268.02698L180.705882 252.265412C221.023373 103.745255 357.456314 0 512.461804 0c153.399216 0 289.430588 102.359843 330.812235 248.932392l-57.98651 16.363922C751.194353 144.564706 638.996078 60.235294 512.461804 60.235294 384.582275 60.235294 272.082824 145.689098 238.873098 268.02698z" fill="#8a8a8a" p-id="14077"></path><path d="M823.215686 441.72549H200.784314a100.392157 100.392157 0 0 1 0-200.784314h622.431372a100.392157 100.392157 0 0 1 0 200.784314z m0-140.549019H200.784314a40.156863 40.156863 0 1 0 0 80.313725h622.431372a40.156863 40.156863 0 1 0 0-80.313725zM461.663373 952.781804c0 5.601882 4.517647 10.159686 10.039215 10.159686h100.653177a10.119529 10.119529 0 0 0 10.059294-10.159686l0.38149-4.758588 60.335686-345.951373 59.572706 9.497098-60.014431 343.923451c-1.40549 37.968314-32.426667 68.407216-70.334745 68.407216h-100.653177c-37.888 0-68.909176-30.438902-70.314666-68.407216l-60.014432-343.923451 59.572706-9.497098 60.717177 350.709961z" fill="#8a8a8a" p-id="14078"></path></svg>