<?xml version="1.0" standalone="no"?><!DOCTYPE svg PUBLIC "-//W3C//DTD SVG 1.1//EN" "http://www.w3.org/Graphics/SVG/1.1/DTD/svg11.dtd"><svg t="1623759929817" class="icon" viewBox="0 0 1291 1024" version="1.1" xmlns="http://www.w3.org/2000/svg" p-id="3311" width="20.171875" height="16" xmlns:xlink="http://www.w3.org/1999/xlink"><defs><style type="text/css"></style></defs><path d="M1111.752348 512.222609c0-100.886261-31.47687-197.676522-91.180522-280.041739a43.141565 43.141565 0 0 0-59.837217-9.70574 42.295652 42.295652 0 0 0-9.794783 59.392 390.455652 390.455652 0 0 1 75.063652 230.4 390.366609 390.366609 0 0 1-75.063652 230.355479 42.295652 42.295652 0 0 0 9.794783 59.347478 43.186087 43.186087 0 0 0 59.792695-9.705739 474.512696 474.512696 0 0 0 91.269566-280.041739zM319.488 222.47513a43.008 43.008 0 0 0-59.837217 9.750261 474.913391 474.913391 0 0 0-91.091479 279.997218c0 100.841739 31.521391 197.676522 91.091479 279.997217a42.963478 42.963478 0 0 0 59.837217 9.750261 42.384696 42.384696 0 0 0 9.794783-59.392 390.455652 390.455652 0 0 1-74.974609-230.355478c0-82.944 25.911652-162.637913 74.974609-230.4a42.295652 42.295652 0 0 0-9.794783-59.347479z" fill="#ffffff" p-id="3312"></path><path d="M1095.858087 16.294957a43.052522 43.052522 0 0 0-60.460522-3.962435 42.295652 42.295652 0 0 0-4.006956 60.015304 664.264348 664.264348 0 0 1 167.401739 439.874783c0 161.435826-59.481043 317.618087-167.401739 439.830261a42.295652 42.295652 0 0 0 4.006956 60.015304 43.052522 43.052522 0 0 0 60.505044-3.962435 748.766609 748.766609 0 0 0 188.68313-495.88313c0-182.093913-67.049739-358.177391-188.727652-495.927652zM85.659826 512.222609c0-161.480348 59.481043-317.662609 167.357217-439.874783a42.295652 42.295652 0 0 0-4.006956-60.015304 42.963478 42.963478 0 0 0-60.416 4.006956A748.944696 748.944696 0 0 0 0 512.178087c0 182.093913 66.960696 358.221913 188.594087 495.88313a43.008 43.008 0 0 0 60.460522 3.962435 42.295652 42.295652 0 0 0 4.006956-60.015304 664.353391 664.353391 0 0 1-167.401739-439.874783zM644.36313 214.461217c-165.442783 0-300.032 133.565217-300.032 297.761392 0 84.190609 36.463304 164.953043 99.995827 221.495652a43.052522 43.052522 0 0 0 60.549565-3.294609 42.295652 42.295652 0 0 0-3.339131-60.104348 211.923478 211.923478 0 0 1-71.412869-158.096695c0-117.270261 96.122435-212.680348 214.28313-212.680348s214.327652 95.410087 214.327652 212.680348c0 117.270261-96.166957 212.635826-214.327652 212.635826h-15.003826a42.829913 42.829913 0 0 0-40.425739 28.449391 209.074087 209.074087 0 0 1-48.439652 77.111652 42.295652 42.295652 0 0 0 0.845913 60.104348 42.918957 42.918957 0 0 0 60.594087-0.756869 295.134609 295.134609 0 0 0 56.275478-80.139131c159.076174-7.212522 286.230261-137.883826 286.230261-297.449739-0.089043-164.151652-134.678261-297.71687-300.076522-297.71687z" fill="#ffffff" p-id="3313"></path></svg>