<?xml version="1.0" standalone="no"?><!DOCTYPE svg PUBLIC "-//W3C//DTD SVG 1.1//EN" "http://www.w3.org/Graphics/SVG/1.1/DTD/svg11.dtd"><svg t="1623901343627" class="icon" viewBox="0 0 1024 1024" version="1.1" xmlns="http://www.w3.org/2000/svg" p-id="11664" xmlns:xlink="http://www.w3.org/1999/xlink" width="16" height="16"><defs><style type="text/css"></style></defs><path d="M575.715556 523.377778l-131.982223-81.92-2.275555-2.275556c-2.275556-2.275556-4.551111-2.275556-9.102222-2.275555-11.377778 0-20.48 9.102222-20.48 20.48V625.777778c0 2.275556 2.275556 6.826667 2.275555 9.102222 6.826667 9.102222 18.204444 13.653333 27.306667 9.102222l2.275555-2.275555 131.982223-81.92 2.275555-2.275556c2.275556-2.275556 4.551111-4.551111 4.551111-6.826667 6.826667-6.826667 4.551111-20.48-6.826666-27.306666z" fill="#FF2212" p-id="11665"></path><path d="M512 0C229.831111 0 0 229.831111 0 512S229.831111 1024 512 1024 1024 794.168889 1024 512 794.168889 0 512 0zM887.466667 648.533333c-2.275556 27.306667-25.031111 50.062222-52.337778 50.062223-4.551111 0-9.102222 0-13.653333-2.275556l-79.644445-31.857778v4.551111c-2.275556 61.44-52.337778 109.226667-113.777778 109.226667H314.026667c-61.44-2.275556-109.226667-52.337778-109.226667-113.777778V405.048889c2.275556-61.44 52.337778-109.226667 113.777778-109.226667H632.604444c61.44 2.275556 109.226667 52.337778 109.226667 113.777778l79.644445-31.857778h4.551111c27.306667-4.551111 52.337778 11.377778 59.164444 40.96 0 4.551111 2.275556 9.102222 2.275556 13.653334v216.177777z" fill="#FF2212" p-id="11666"></path></svg>