<?xml version="1.0" standalone="no"?><!DOCTYPE svg PUBLIC "-//W3C//DTD SVG 1.1//EN" "http://www.w3.org/Graphics/SVG/1.1/DTD/svg11.dtd"><svg t="1623846841587" class="icon" viewBox="0 0 1024 1024" version="1.1" xmlns="http://www.w3.org/2000/svg" p-id="3482" xmlns:xlink="http://www.w3.org/1999/xlink" width="16" height="16"><defs><style type="text/css"></style></defs><path d="M930.8 179.3H93.2c-21 0-38.1-17-38.1-38.1 0-21 17-38.1 38.1-38.1h837.6c21 0 38.1 17 38.1 38.1s-17 38.1-38.1 38.1zM930.8 552.4H93.2c-21 0-38.1-17-38.1-38.1 0-21 17-38.1 38.1-38.1h837.6c21 0 38.1 17 38.1 38.1s-17 38.1-38.1 38.1zM930.8 925.6H93.2c-21 0-38.1-17-38.1-38.1 0-21 17-38.1 38.1-38.1h837.6c21 0 38.1 17 38.1 38.1 0 21-17 38.1-38.1 38.1z" p-id="3483" fill="#8a8a8a"></path></svg>