<?xml version="1.0" standalone="no"?><!DOCTYPE svg PUBLIC "-//W3C//DTD SVG 1.1//EN" "http://www.w3.org/Graphics/SVG/1.1/DTD/svg11.dtd"><svg t="1623901155726" class="icon" viewBox="0 0 1024 1024" version="1.1" xmlns="http://www.w3.org/2000/svg" p-id="7132" xmlns:xlink="http://www.w3.org/1999/xlink" width="16" height="16"><defs><style type="text/css"></style></defs><path d="M877.42 247.768H272.421l130.44-130.511c15.98-15.91 15.98-41.775 0-57.686-15.91-15.91-41.704-15.91-57.684 0L157.611 247.139C136.55 266 136.55 298.737 136.55 310.512v473.39c0 22.43 18.363 40.794 40.827 40.794H877.42c22.431 0 40.794-18.363 40.794-40.793v-495.34c0-22.43-18.364-40.795-40.794-40.795zM352.048 646.941c-58.494 0-105.84-47.382-105.84-105.977 0-58.315 47.347-105.768 105.84-105.768 58.456 0 105.837 47.453 105.837 105.768 0 58.596-47.382 105.977-105.837 105.977z m439.44 7.991H579.565c-13.494 0-24.463-11.003-24.463-24.531 0-13.458 10.971-24.463 24.463-24.463h211.923c13.53 0 24.462 11.005 24.462 24.463 0 13.528-10.934 24.531-24.462 24.531z m0-165.416H579.565c-13.494 0-24.463-10.936-24.463-24.463 0-13.458 10.971-24.533 24.463-24.533h211.923c13.53 0 24.462 11.074 24.462 24.533 0 13.529-10.934 24.463-24.462 24.463z" fill="#D81E06" p-id="7133"></path></svg>