<?xml version="1.0" standalone="no"?><!DOCTYPE svg PUBLIC "-//W3C//DTD SVG 1.1//EN" "http://www.w3.org/Graphics/SVG/1.1/DTD/svg11.dtd"><svg t="1623763343361" class="icon" viewBox="0 0 1024 1024" version="1.1" xmlns="http://www.w3.org/2000/svg" p-id="4337" xmlns:xlink="http://www.w3.org/1999/xlink" width="16" height="16"><defs><style type="text/css"></style></defs><path d="M734.17 183.163c15.38 15.381 16.564 39.583 3.55 56.32l-3.55 4.02-33.83 33.83H768c47.128 0 85.333 38.205 85.333 85.334v384C853.333 793.795 815.128 832 768 832H256c-47.128 0-85.333-38.205-85.333-85.333v-384c0-47.129 38.205-85.334 85.333-85.334h88.993l-33.83-33.83-3.549-4.02c-13.014-16.737-11.831-40.939 3.55-56.32 16.495-16.495 43.138-16.66 59.836-0.494l0.503 0.494 94.169 94.17H579.66l94.17-94.17c16.661-16.662 43.677-16.662 60.339 0z m-264.837 254.17v256L640 556.8 469.333 437.333z" p-id="4338" fill="#d81e06"></path></svg>