<?xml version="1.0" standalone="no"?><!DOCTYPE svg PUBLIC "-//W3C//DTD SVG 1.1//EN" "http://www.w3.org/Graphics/SVG/1.1/DTD/svg11.dtd"><svg t="1623763523739" class="icon" viewBox="0 0 1024 1024" version="1.1" xmlns="http://www.w3.org/2000/svg" p-id="12380" xmlns:xlink="http://www.w3.org/1999/xlink" width="16" height="16"><defs><style type="text/css"></style></defs><path d="M641.749333 641.770667a274.304 274.304 0 0 1-82.453333 56.768l157.589333 157.610666a98.496 98.496 0 1 0 139.306667-139.306666l-157.632-157.632a274.304 274.304 0 0 1-56.810667 82.56z m63.509334-136.213334l181.12 181.12a141.162667 141.162667 0 1 1-199.658667 199.637334l-181.077333-181.077334a21.333333 21.333333 0 0 1 8.938666-35.52 231.04 231.04 0 0 0 97.002667-58.112 231.04 231.04 0 0 0 58.154667-97.109333 21.333333 21.333333 0 0 1 35.52-8.938667z" p-id="12381" fill="#d81e06"></path><path d="M737.450667 767.616a21.333333 21.333333 0 0 1 30.165333-30.165333l38.186667 38.186666a21.333333 21.333333 0 0 1-30.165334 30.186667l-38.186666-38.208zM641.749333 641.770667c-107.328 107.328-281.386667 107.328-388.693333 0-107.349333-107.349333-107.349333-281.386667 0-388.714667 107.306667-107.349333 281.365333-107.349333 388.693333 0 107.349333 107.349333 107.349333 281.386667 0 388.693333z m-30.165333-30.165334c90.666667-90.666667 90.666667-237.696 0-328.384-90.666667-90.666667-237.696-90.666667-328.384 0-90.666667 90.666667-90.666667 237.696 0 328.384 90.666667 90.666667 237.696 90.666667 328.384 0z" p-id="12382" fill="#d81e06"></path><path d="M543.957333 350.869333a21.333333 21.333333 0 1 1 30.165334-30.186666 179.2 179.2 0 0 1 0 253.44 21.333333 21.333333 0 0 1-30.165334-30.165334 136.533333 136.533333 0 0 0 0-193.088z" p-id="12383" fill="#d81e06"></path></svg>