<?xml version="1.0" standalone="no"?><!DOCTYPE svg PUBLIC "-//W3C//DTD SVG 1.1//EN" "http://www.w3.org/Graphics/SVG/1.1/DTD/svg11.dtd"><svg t="1623901239360" class="icon" viewBox="0 0 1462 1024" version="1.1" xmlns="http://www.w3.org/2000/svg" p-id="8637" xmlns:xlink="http://www.w3.org/1999/xlink" width="22.84375" height="16"><defs><style type="text/css"></style></defs><path d="M993.670095 58.026667c122.148571 0 236.836571 47.299048 323.096381 133.607619a451.632762 451.632762 0 0 1 133.851429 322.755047c0 121.904762-47.542857 236.495238-133.851429 322.755048a454.460952 454.460952 0 0 1-323.096381 133.607619 453.680762 453.680762 0 0 1-323.096381-133.607619 453.38819 453.38819 0 0 1-133.802666-322.80381c0-121.904762 47.542857-236.446476 133.802666-322.706285a454.460952 454.460952 0 0 1 323.096381-133.607619z m172.422095 241.078857a30.47619 30.47619 0 0 0 0 43.056762 243.46819 243.46819 0 0 1 0 344.259047 30.47619 30.47619 0 0 0 43.056762 43.056762 304.37181 304.37181 0 0 0 0-430.372571 30.47619 30.47619 0 0 0-43.056762 0z m-172.227047 130.389333c-47.006476 0-84.894476 37.888-84.894476 84.845714 0 46.908952 38.034286 84.943238 84.845714 84.943239a84.845714 84.845714 0 1 0 0-169.837715z" fill="#FB503E" opacity=".504" p-id="8638"></path><path d="M35.108571 1000.594286a13.799619 13.799619 0 0 1-13.799619-13.799619V41.788952c0-7.558095 6.192762-13.750857 13.750858-13.750857H980.114286c7.606857 0 13.799619 6.192762 13.799619 13.750857v945.005715a13.799619 13.799619 0 0 1-13.799619 13.799619H35.108571z" fill="#FB503E" p-id="8639"></path><path d="M680.569905 246.052571L448.609524 323.584c-28.184381 8.777143-50.858667 40.618667-50.858667 71.289905V661.845333s-17.066667-12.434286-54.369524-6.582857C288.377905 663.698286 243.809524 709.778286 243.809524 758.052571s44.568381 77.872762 99.571809 69.485715C398.433524 819.151238 438.857143 774.485333 438.857143 726.211048v-228.156953c0-21.211429 23.30819-30.378667 23.30819-30.378666l205.190096-70.217143s22.966857-8.387048 22.966857 14.628571v182.857143s-20.918857-12.775619-58.514286-8.045714c-55.003429 7.314286-99.620571 52.321524-99.620571 100.595809 0 48.274286 44.617143 78.994286 99.669333 71.68C686.86019 751.908571 731.428571 706.901333 731.428571 658.578286V285.891048c0-30.72-22.674286-48.615619-50.858666-39.838477z" fill="#FFFFFF" p-id="8640"></path></svg>